<?xml version="1.0" encoding="UTF-8" standalone="no"?>
<!DOCTYPE svg [
        <!ELEMENT svg (defs|metadata|g)*>
        <!ATTLIST svg
                xmlns:dc CDATA #REQUIRED
                xmlns:cc CDATA #REQUIRED
                xmlns:rdf CDATA #REQUIRED
                xmlns:svg CDATA #REQUIRED
                xmlns CDATA #REQUIRED
                id CDATA #REQUIRED
                version CDATA #REQUIRED
                viewBox CDATA #REQUIRED
                height CDATA #REQUIRED
                width CDATA #REQUIRED>
        <!ELEMENT defs (#PCDATA)>
        <!ATTLIST defs
                id CDATA #REQUIRED>
        <!ELEMENT metadata (rdf:RDF)*>
        <!ATTLIST metadata
                id CDATA #REQUIRED>
        <!ELEMENT rdf:RDF (cc:Work)*>
        <!ELEMENT cc:Work (dc:format|dc:type|dc:title)*>
        <!ATTLIST cc:Work
                rdf:about CDATA #REQUIRED>
        <!ELEMENT dc:format (#PCDATA)>
        <!ELEMENT dc:type (#PCDATA)>
        <!ATTLIST dc:type
                rdf:resource CDATA #REQUIRED>
        <!ELEMENT dc:title (#PCDATA)>
        <!ELEMENT g (path)*>
        <!ATTLIST g
                transform CDATA #REQUIRED
                id CDATA #REQUIRED
                fill CDATA #REQUIRED>
        <!ELEMENT path (#PCDATA)>
        <!ATTLIST path
                id CDATA #REQUIRED
                d CDATA #REQUIRED
                style CDATA #REQUIRED>
        ]>
<svg
   xmlns:dc="http://purl.org/dc/elements/1.1/"
   xmlns:cc="http://creativecommons.org/ns#"
   xmlns:rdf="http://www.w3.org/1999/02/22-rdf-syntax-ns#"
   xmlns:svg="http://www.w3.org/2000/svg"
   xmlns="http://www.w3.org/2000/svg"
   id="svg3727"
   version="1.1"
   viewBox="0 0 279.4 190.9"
   height="6.5in"
   width="11in">
  <defs
     id="defs3721" />
  <metadata
     id="metadata3724">
    <rdf:RDF>
      <cc:Work
         rdf:about="">
        <dc:format>image/svg+xml</dc:format>
        <dc:type
           rdf:resource="http://purl.org/dc/dcmitype/StillImage" />
        <dc:title></dc:title>
      </cc:Work>
    </rdf:RDF>
  </metadata>
  <g
     transform="translate(0,-81.1)"
     id="layer1">
    <path
       id="path3701"
       d="m 181.51761,248.09772 c -6.8537,-1.42461 -9.30433,-3.00277 -12.86982,-8.28792 -2.45699,-3.64202 -5.72834,-9.73856 -5.72834,-10.67542 0,-0.25217 1.0849,-0.95749 2.41087,-1.56739 3.0915,-1.42196 8.91909,-5.76711 12.77458,-9.52494 4.23638,-4.12908 12.08873,-14.77397 15.65879,-21.22755 2.55594,-4.62037 7.16734,-14.2048 7.53041,-15.65138 0.29406,-1.17157 0.37575,-1.19783 2.66222,-0.85534 4.19147,0.62783 13.57021,0.34586 17.51291,-0.52652 8.34561,-1.8466 15.92962,-5.21299 20.01091,-8.8824 1.26321,-1.13575 2.41591,-1.94582 2.56156,-1.80018 0.14565,0.14563 0.0342,0.92613 -0.24749,1.73442 -0.90725,2.60249 -0.70889,2.8317 1.45886,1.68577 4.0518,-2.14195 7.99594,-7.80733 10.38621,-14.91878 1.07612,-3.20161 1.20262,-4.75416 0.44877,-5.508 -0.54447,-0.54449 -0.19123,-1.50951 0.55257,-1.50951 0.24556,0 0.57698,0.36165 0.73644,0.80364 0.15945,0.44198 0.70009,1.39499 1.20143,2.11779 0.78935,1.13803 0.96803,1.2132 1.33309,0.56088 0.52609,-0.94009 0.48372,-10.952 -0.0556,-13.12579 -0.75909,-3.05966 -2.70073,-6.66833 -4.79444,-8.91075 -1.15654,-1.23867 -2.01139,-2.40003 -1.8997,-2.58077 0.2414,-0.39059 3.67138,0.60597 6.88132,1.99936 2.68703,1.16642 9.15919,7.14395 11.19663,10.34092 2.10479,3.30271 2.96461,7.30844 2.6461,12.32751 -0.67146,10.58132 -4.05401,20.30945 -8.77178,25.22749 -3.01118,3.13899 -12.50779,9.35449 -14.29263,9.35449 -0.41621,0 -1.71462,0.48758 -2.88535,1.08347 -2.3804,1.21165 -3.53417,1.71347 -6.38056,2.7751 -2.45902,0.91716 -10.61613,1.49957 -11.84734,0.8459 -0.65371,-0.34708 -1.81069,-0.23587 -4.33572,0.41675 -3.96815,1.0256 -10.14833,1.15321 -17.08303,0.35268 -5.27791,-0.60924 -6.23772,-0.42965 -4.04081,0.75612 5.4473,2.94013 10.35005,4.1992 18.59816,4.77618 l 5.96978,0.41762 -6.429,-0.18221 c -4.46806,-0.12665 -7.47951,-0.46162 -9.87309,-1.09825 -3.74643,-0.99646 -9.36305,-3.56268 -11.70175,-5.34649 -0.8099,-0.61774 -1.69413,-1.12316 -1.96495,-1.12316 -0.27082,0 -0.59997,-0.25832 -0.73143,-0.57402 -0.32715,-0.78561 -1.27872,0.45044 -3.62361,4.70695 -2.68933,4.88173 -5.53661,9.26262 -7.92926,12.20013 -1.13359,1.39174 -2.06105,2.78653 -2.06105,3.09951 0,0.5217 1.78706,2.12767 8.03625,7.22186 2.68565,2.18928 8.48208,5.09447 12.3933,6.21155 2.26333,0.64642 3.80697,0.73187 8.72506,0.4829 7.69066,-0.38931 9.89402,-1.00506 14.0564,-3.92819 3.70203,-2.59984 5.02561,-4.09123 3.11662,-3.51176 -0.60229,0.18283 -2.64491,0.40858 -4.53918,0.50168 l -3.44409,0.16927 3.54643,-0.40913 c 1.95055,-0.22502 3.96842,-0.63494 4.48416,-0.91096 0.75495,-0.40403 0.99526,-0.3519 1.23296,0.2676 0.16241,0.42322 0.0615,1.14357 -0.22391,1.6008 -0.46377,0.74264 -0.3123,0.85898 1.41998,1.09034 1.06655,0.14247 3.07571,0.33159 4.46484,0.42029 1.38911,0.0887 0.25254,0.14697 -2.52569,0.12952 l -5.05136,-0.0319 -2.85085,1.93786 c -3.87949,2.63707 -4.76331,2.91611 -9.67207,3.05369 -2.3414,0.0656 -4.40754,0.26979 -4.59142,0.45367 -0.4525,0.45249 1.33032,1.71256 2.03853,1.44078 0.32628,-0.12521 0.46507,0.0409 0.3294,0.3945 -0.14691,0.38285 0.50452,0.96432 1.74544,1.55801 7.96839,3.81221 15.81789,1.93541 23.1804,-5.5424 l 3.597,-3.65332 -1.68985,0.17959 c -0.92942,0.0988 -1.58881,0.0161 -1.46533,-0.18368 0.12339,-0.19978 0.71919,-0.36324 1.32381,-0.36324 0.60464,0 1.62655,-0.24023 2.27091,-0.5338 1.98065,-0.90245 1.80015,-0.10403 -0.44417,1.96474 -2.59147,2.38873 -2.33353,2.59292 3.44873,2.72992 3.75172,0.0889 3.80523,0.10477 1.37764,0.40921 -2.74601,0.34435 -6.56152,0.27818 -7.21405,-0.12509 -0.22482,-0.13895 -0.67203,0.16892 -0.99378,0.68415 -0.32177,0.51523 -0.3655,0.8011 -0.0972,0.63528 0.29783,-0.18409 0.38173,-0.025 0.21538,0.40851 -0.14985,0.39053 -0.41867,0.61966 -0.59739,0.50921 -0.49315,-0.30478 -2.84976,1.37423 -2.46661,1.75738 0.18376,0.18376 0.0117,0.21047 -0.38195,0.0594 -0.39383,-0.15113 -0.9811,0.0447 -1.30507,0.43494 -0.32395,0.39034 -0.87367,0.70972 -1.22159,0.70972 -0.34793,0 -0.63259,0.30348 -0.63259,0.6744 0,0.37092 -0.26926,0.5711 -0.59831,0.44482 -0.32906,-0.12627 -1.35565,0.0869 -2.28132,0.47363 -1.09849,0.45898 -3.08368,0.69486 -5.7159,0.67919 -4.7493,-0.0283 -9.03452,-1.49303 -11.92806,-4.07714 -1.47165,-1.31424 -2.14796,-1.58197 -4.27397,-1.69178 -1.38912,-0.0717 -3.45558,-0.37702 -4.59214,-0.67842 -2.61952,-0.6946 -10.03918,-4.20181 -11.25074,-5.31811 -1.96398,-1.80955 -5.88885,-4.74661 -6.08325,-4.55222 -0.73897,0.73898 5.64676,7.62876 9.32953,10.06591 2.87592,1.90318 9.35055,4.43032 11.56535,4.5141 1.09363,0.0414 2.09611,0.24947 2.22776,0.46247 0.3832,0.62007 -1.2055,1.01471 -1.77843,0.44176 -0.28611,-0.28611 -1.1144,-0.52019 -1.84065,-0.52019 -0.72623,0 -3.62961,-1.10559 -6.45195,-2.4569 -6.19634,-2.9667 -9.72695,-6.01302 -13.4448,-11.6006 -1.40845,-2.11677 -2.72572,-3.9506 -2.92729,-4.07516 -0.20155,-0.12458 -1.16045,0.75297 -2.13088,1.95007 -0.97045,1.19711 -2.9051,3.25693 -4.2992,4.57739 -1.39412,1.32045 -2.27645,2.40534 -1.96074,2.41086 0.31571,0.006 0.57403,0.31035 0.57403,0.67739 0,0.79485 5.59337,5.69775 8.94921,7.84445 2.76927,1.77149 5.82396,2.69946 11.2562,3.41952 3.66448,0.48572 4.1496,0.44561 7.92836,-0.6556 4.71236,-1.37329 4.50829,-1.34682 4.20046,-0.54462 -0.30853,0.804 3.46737,3.34089 5.97936,4.01729 1.02322,0.27554 2.94693,0.41088 4.27489,0.30075 1.32796,-0.11013 2.41448,-0.0543 2.41448,0.12406 0,0.1784 -1.70484,1.17682 -3.78851,2.21872 -5.02312,2.51172 -9.05908,3.15544 -13.42933,2.1419 -4.14213,-0.96062 -9.09332,-3.60988 -10.81934,-5.78915 -0.81334,-1.02693 -2.08244,-1.97014 -3.08863,-2.29553 -3.04173,-0.98363 -5.30392,-2.31583 -9.39969,-5.53543 -2.20987,-1.73716 -4.14775,-3.15846 -4.30641,-3.15846 -1.18891,0 2.53275,9.99898 5.81135,15.61328 1.91934,3.28675 5.46528,6.06219 8.46376,6.62472 1.85194,0.34742 2.11377,0.94417 0.59309,1.35168 -1.13188,0.30334 -8.28872,0.29746 -9.7583,-0.007 z m 8.95467,-0.5483 c 0,-0.21258 -0.77492,-0.62026 -1.72204,-0.90593 -3.07092,-0.92622 -6.24156,-4.21172 -8.39335,-8.69735 -3.03386,-6.32444 -4.49453,-10.27534 -4.62567,-12.51168 -0.22671,-3.86633 -0.48559,-3.96345 -3.83156,-1.43722 -1.29468,0.97747 -3.55284,2.45387 -5.01814,3.28083 -1.46529,0.82696 -2.75916,1.75113 -2.87528,2.05371 -0.32604,0.84968 2.68918,6.993 5.17508,10.54386 2.85033,4.0714 5.7227,6.14086 9.9743,7.18616 3.38181,0.83146 11.31666,1.17336 11.31666,0.48762 z m 25.71253,-8.4364 c 2.78526,-1.35876 2.89472,-1.46802 1.6107,-1.60729 -3.1236,-0.33881 -5.65834,-1.18542 -8.20194,-2.73943 -1.48026,-0.90436 -2.82346,-1.46219 -2.9849,-1.23961 -0.16142,0.22258 -0.91344,0.70459 -1.67114,1.07112 -0.75771,0.36656 -1.56774,0.76175 -1.80009,0.87823 -0.23317,0.1169 -0.28411,-0.18206 -0.11364,-0.66717 0.29336,-0.83505 0.27675,-0.83777 -0.33232,-0.0544 -0.72402,0.93123 -3.49207,1.52719 -4.73686,1.01983 -0.76832,-0.31317 -0.76194,-0.3591 0.0947,-0.68342 0.70599,-0.26729 0.2993,-0.47757 -1.75848,-0.90926 -1.47229,-0.30887 -2.7687,-0.46977 -2.88089,-0.35756 -0.28101,0.28101 0.30033,1.71308 0.69543,1.71308 0.17619,0 1.0814,0.69711 2.01156,1.54912 1.87506,1.71745 5.85914,3.38004 9.31698,3.88801 3.32678,0.48872 7.36796,-0.21093 10.75089,-1.86129 z m -20.28806,-3.88954 c 0.3315,-0.13265 0.72757,-0.11637 0.88015,0.0362 0.1526,0.15258 -0.11857,0.26112 -0.60271,0.24117 -0.53496,-0.022 -0.64378,-0.13085 -0.27744,-0.27743 z m 28.26084,-41.69839 c 5.07796,-1.07588 9.06911,-3.1726 12.14811,-6.38195 2.86819,-2.98963 4.14706,-5.64173 5.45085,-11.30379 0.37801,-1.64168 0.87144,-3.44984 1.09649,-4.01811 0.53724,-1.35664 0.36692,-1.31596 -2.21058,0.52813 -2.93672,2.10111 -8.86047,5.04919 -12.51463,6.22819 -6.33105,2.04267 -11.79229,2.85217 -18.59818,2.75678 -3.53594,-0.0496 -6.65757,-0.0664 -6.93691,-0.0373 -0.39795,0.0414 -4.77303,8.67639 -4.77303,9.42039 0,0.483 6.19762,2.5754 7.69666,2.59848 0.94447,0.0146 2.54382,0.19745 3.55408,0.40641 3.05075,0.63103 11.71222,0.51779 15.08714,-0.19727 z m 18.27093,-2.00647 c 2.18261,-0.74347 5.09656,-2.07345 6.47546,-2.95552 2.81628,-1.80157 7.96078,-7.59265 10.57605,-11.90534 1.86553,-3.07634 4.4665,-10.51743 4.4665,-12.77821 0,-2.01602 -1.14569,-4.44497 -3.10978,-6.59312 -0.94649,-1.03515 -2.15162,-2.48055 -2.67805,-3.21197 l -0.95717,-1.32988 -0.28145,2.05339 c -0.33758,2.46284 -2.30183,7.4632 -4.29699,10.93868 -1.81071,3.15421 -5.0357,6.41887 -7.68884,7.78344 -1.68511,0.86669 -2.07973,1.32611 -2.33157,2.71449 -0.33962,1.87238 -1.18049,4.47893 -2.28895,7.09535 -1.04246,2.46063 -5.07322,6.44935 -7.99489,7.91151 -3.12091,1.56187 -2.51405,2.01128 2.42152,1.79326 2.56457,-0.11324 4.95219,-0.5841 7.68816,-1.51608 z m 12.50156,-5.41938 c 10.23495,-6.68187 13.7318,-10.90944 16.27324,-19.67376 3.00599,-10.36628 2.77302,-19.99623 -0.59429,-24.56795 -3.99098,-5.4185 -10.06358,-10.23272 -14.12474,-11.19776 -1.62711,-0.38666 -1.60568,0.2134 0.076,2.12881 2.38022,2.7109 3.77197,6.47336 4.19069,11.32893 0.39218,4.54812 0.13271,10.0125 -0.51492,10.8431 -0.21861,0.28038 0.46645,1.29917 1.67333,2.48851 3.39871,3.34931 3.56181,5.4139 1.03576,13.10929 -1.56215,4.75898 -3.9858,8.66722 -8.65653,13.95907 -1.80617,2.04636 -3.13791,3.72065 -2.95939,3.72065 0.17849,0 1.79886,-0.9625 3.60079,-2.13889 z M 84.240781,247.62981 c -0.60505,-0.60507 -0.277192,-0.93406 1.522952,-1.52816 4.61048,-1.52158 11.529083,-9.60979 13.355133,-15.61286 0.25835,-0.84933 0.36045,-0.92457 0.38959,-0.28708 0.073,1.59786 -3.83998,8.24061 -6.60809,11.21803 -1.50933,1.62347 -3.885773,3.59877 -5.280952,4.38956 l -2.536731,1.43783 2.755284,0.2672 2.755274,0.26721 -3.02315,0.0771 c -1.662739,0.0424 -3.160929,-0.0605 -3.32931,-0.22895 z m 6.620343,0.13971 c 0.105176,-0.0916 1.110499,-0.28401 2.233942,-0.42772 1.32142,-0.16904 1.80782,-0.11272 1.37763,0.1594 -0.6137,0.38826 -4.042323,0.643 -3.611572,0.26832 z m 5.472302,-1.21121 c 0.37885,-0.24484 0.99879,-0.44515 1.37764,-0.44515 0.61229,0 0.61229,0.0495 0,0.44515 -0.37885,0.24482 -0.99879,0.44514 -1.37764,0.44514 -0.61229,0 -0.61229,-0.0495 0,-0.44514 z m 3.910114,-1.42211 c 2.33443,-1.22827 5.31683,-4.11024 7.43859,-7.18816 1.84556,-2.67723 2.34545,-3.09419 1.31075,-1.09331 -1.75448,3.39279 -7.9979,9.24436 -9.863394,9.24436 -0.39381,0 0.10751,-0.43329 1.114054,-0.96289 z m 9.4071,0.66328 c 0,-0.21885 0.39763,-0.64622 0.88363,-0.94974 1.27493,-0.79621 4.95964,-8.4152 5.623,-11.62689 0.52813,-2.55694 0.64993,-2.73703 1.85108,-2.73703 0.70717,0 1.28577,0.18967 1.28577,0.4215 0,0.23182 1.70483,0.98322 3.78851,1.66974 2.08369,0.68654 3.86032,1.30914 3.94807,1.38356 0.49552,0.42031 -3.15868,5.32714 -5.27786,7.08711 -2.76969,2.30021 -4.84576,3.32168 -8.22329,4.04603 -1.25055,0.26819 -2.63489,0.62621 -3.07631,0.79561 -0.44145,0.16937 -0.8026,0.12899 -0.8026,-0.09 z m 7.69101,-2.46578 c 2.65502,-1.16493 6.35545,-4.3922 7.77863,-6.78403 0.64549,-1.08484 1.08945,-2.0566 0.98657,-2.1595 -0.48079,-0.48078 -8.26596,-2.99341 -8.61207,-2.7795 -0.21594,0.13345 -0.5337,1.01986 -0.70612,1.96976 -0.17246,0.94993 -1.33056,3.86791 -2.5736,6.48439 l -2.26005,4.75728 1.7179,-0.31622 c 0.94484,-0.17393 2.59577,-0.7014 3.66874,-1.17218 z m 44.14035,1.42928 c -2.11,-0.56941 -3.88517,-1.46836 -5.78236,-2.92823 -2.81548,-2.16646 -7.47505,-6.96842 -7.47505,-7.70348 0,-0.22739 0.56828,-0.53817 1.26285,-0.69063 2.24196,-0.49206 8.12983,-2.55608 8.74286,-3.06487 0.42708,-0.35445 0.74528,-0.34381 1.12673,0.0377 0.29239,0.29238 0.40891,0.53161 0.25896,0.53161 -0.46232,0 0.48735,3.51178 1.64086,6.06777 0.60259,1.33523 1.23843,2.89678 1.41298,3.4701 0.17453,0.57333 1.02402,1.9682 1.88769,3.09969 1.82267,2.38781 1.64767,2.45499 -3.07552,1.18038 z m 1.87207,-1.82398 c -0.55099,-0.98034 -1.88804,-4.02838 -2.97121,-6.77342 -1.08317,-2.745 -2.14378,-4.94501 -2.35688,-4.88887 -2.87933,0.75855 -8.22592,3.00108 -8.3307,3.49416 -0.0752,0.3535 1.65456,2.31852 3.84372,4.36672 3.91982,3.66743 7.1366,5.50099 9.75423,5.55993 l 1.06264,0.0239 -1.0018,-1.78245 z m -96.639949,-1.89127 c -0.876344,-0.37657 -0.871088,-0.39613 0.114809,-0.42693 0.568276,-0.0178 1.033234,0.17436 1.033234,0.42693 0,0.25257 -0.05168,0.44468 -0.114809,0.42695 -0.06314,-0.0179 -0.528103,-0.20989 -1.033234,-0.42695 z m 2.245055,0.0825 c 0.140547,-0.22743 1.144169,-0.53529 2.230244,-0.68416 3.899157,-0.53442 11.826794,-4.47713 11.826794,-5.88189 0,-0.22259 -0.568275,-0.42495 -1.262842,-0.44971 -0.713981,-0.0255 -0.06531,-0.29088 1.492452,-0.61075 3.702845,-0.76037 5.601111,-1.63097 9.632302,-4.41774 3.46358,-2.39437 7.588224,-6.39444 7.588224,-7.35904 0,-0.29277 -1.100164,-1.72063 -2.444814,-3.17301 -1.34464,-1.45238 -3.04948,-3.59776 -3.78851,-4.76749 -0.73904,-1.16974 -1.48184,-2.12718 -1.65067,-2.12762 -0.168816,-3.7e-4 -0.754758,0.72371 -1.302059,1.60927 -0.5473,0.88557 -1.173544,1.49983 -1.391642,1.36504 -0.218109,-0.13479 -2.525211,1.16852 -5.126935,2.89625 -8.499342,5.64414 -12.894935,7.73234 -17.712744,8.41461 -2.283321,0.32337 -3.413007,0.79152 -5.292608,2.19339 -4.30769,3.21277 -7.934842,4.43109 -12.140209,4.07772 -1.849312,-0.15539 -3.410187,0.0316 -5.173912,0.62003 -3.451847,1.1515 -7.286597,1.07751 -11.942791,-0.23044 -4.679994,-1.31462 -8.524379,-3.04269 -11.936337,-5.36545 -2.846725,-1.93795 -7.211341,-6.22691 -6.777877,-6.66038 0.156512,-0.15652 1.590581,0.23666 3.186813,0.87373 3.451314,1.37741 8.076568,2.48981 10.93849,2.63075 2.042396,0.10064 5.510569,-0.39751 5.510569,-0.79142 0,-0.1118 -0.618986,-0.86379 -1.375518,-1.67093 -1.640707,-1.75048 -1.753153,-2.38019 -0.346535,-1.94058 3.729048,1.16543 10.285045,1.5162 11.969749,0.64044 1.455928,-0.75685 1.45818,-0.76431 0.536554,-1.7827 -1.193444,-1.31875 -0.365642,-1.75317 2.073738,-1.08831 l 2.066462,0.56324 -1.741629,0.0369 -1.741629,0.0369 1.282417,1.62388 c 1.771357,2.24301 5.179525,4.34017 8.590515,5.286 3.231832,0.89615 12.474954,0.85567 15.40669,-0.0676 4.214557,-1.32711 16.618768,-8.79209 20.158401,-12.13153 1.659971,-1.56607 1.695807,-2.4812 0.162837,-4.15861 -1.300793,-1.42334 -4.877021,-5.97203 -5.421802,-6.89609 -0.459426,-0.7793 -0.689271,-0.6703 -2.799341,1.32751 -2.034545,1.92628 -6.953489,5.83201 -7.344997,5.83201 -0.498333,0 0.213287,-0.63911 3.067829,-2.75529 1.767984,-1.31065 3.21451,-2.56565 3.21451,-2.78887 0,-0.4814 -5.846014,1.56439 -7.947102,2.78107 -2.463438,1.42652 -11.301943,3.79604 -15.453078,4.14283 -2.157682,0.18025 -5.67955,0.88516 -7.826371,1.56644 -4.184277,1.32786 -8.525681,1.62645 -11.740016,0.80741 -0.993741,-0.25323 -3.666614,-0.59368 -5.939722,-0.75658 -4.848011,-0.3474 -7.297662,-1.06123 -12.691998,-3.69838 -5.034996,-2.4615 -7.322171,-4.06318 -10.5821808,-7.41062 -2.881124,-2.9584 -6.497245,-9.5783 -7.0240546,-12.85871 -0.3177287,-1.97846 0.1011296,-6.13194 0.6162716,-6.11108 0.160747,0.007 1.000326,1.0554 1.86573,2.33085 3.037428,4.47665 10.1223608,9.83406 14.1851908,10.7264 1.618054,0.3554 1.740532,0.10361 0.773051,-1.58874 -1.306363,-2.28524 -0.519291,-2.47765 1.978586,-0.48372 3.114635,2.48629 14.323509,6.52554 14.323509,5.16165 0,-0.26994 -0.20376,-0.61674 -0.452804,-0.77066 -0.667734,-0.41268 -0.230139,-2.31489 0.508662,-2.21111 0.348131,0.0489 2.802746,0.85932 5.454709,1.80093 4.499044,1.59746 5.256646,1.7259 11.31988,1.91922 6.001619,0.19135 6.821774,0.11429 10.733954,-1.00786 6.11217,-1.75325 11.086849,-3.91594 11.353557,-4.93585 0.122358,-0.46762 0.527985,-0.85026 0.90156,-0.85026 0.943519,0 3.346926,-1.47339 3.345029,-2.05066 -10e-4,-0.26125 -1.085758,-2.41335 -2.410865,-4.78246 l -2.409325,-4.30744 -7.347417,-0.11767 c -7.848545,-0.12575 -16.396573,-1.47982 -21.128596,-3.34699 -2.735526,-1.07939 -6.945313,-3.5559 -10.027965,-5.89921 l -2.226083,-1.69218 0.309915,3.17689 c 0.417769,4.28243 0.92775,5.84324 3.108327,9.51324 1.801615,3.03217 6.045811,7.37496 7.936625,8.12099 0.513109,0.20245 1.856311,0.79625 2.984892,1.31958 1.128582,0.52331 3.075076,1.17572 4.325545,1.44978 3.206646,0.7028 12.054912,0.58454 17.434121,-0.23301 4.981782,-0.75714 6.263576,-0.68245 2.452205,0.14285 -8.323513,1.80238 -17.956444,1.80151 -22.53408,-9.3e-4 -0.969945,-0.38216 -2.089096,-0.35899 -4.483424,0.0928 -3.022994,0.5704 -3.450125,0.53634 -8.121275,-0.64767 -2.942187,-0.74574 -6.287267,-1.97961 -8.295025,-3.05968 -1.850514,-0.9955 -3.651209,-1.80998 -4.001553,-1.80998 -1.209504,0 -7.878001,-3.75385 -9.667132,-5.44185 -6.3409608,-5.98254 -9.4389008,-12.60044 -11.6520968,-24.89148 -1.7346174,-9.63324 -0.215914,-14.6501 6.540881,-21.60707 3.8486428,-3.96267 7.7407218,-6.14138 11.6973448,-6.54797 2.263975,-0.23265 3.317775,0.30822 1.762962,0.90486 -0.855148,0.32816 -4.076451,5.05028 -5.24084,7.68257 -1.546141,3.49531 -2.663085,10.57127 -2.148997,13.61413 0.171509,1.01518 0.474345,1.84577 0.67297,1.84577 0.198619,0 1.147645,-0.72042 2.108943,-1.60094 0.961301,-0.88053 1.83608,-1.51268 1.943959,-1.40481 0.107887,0.10792 0.25204,1.7233 0.320355,3.58982 0.141183,3.85743 2.422878,10.2167 4.610284,12.84922 1.331871,1.60288 5.402981,5.13903 6.831641,5.93393 0.817358,0.45478 0.854912,0.35127 0.58554,-1.61403 -0.166803,-1.21692 -0.0969,-2.21797 0.166238,-2.3806 0.249739,-0.15435 1.630027,0.76749 3.067309,2.04851 2.662582,2.37313 8.981219,5.88143 12.298453,6.82846 5.979324,1.70706 12.54428,2.54066 19.576624,2.4858 5.335389,-0.0417 7.165342,0.0854 7.12911,0.49553 -0.06551,0.74136 5.656916,12.34062 8.767761,17.77207 1.374253,2.39938 3.316436,5.39577 4.315989,6.65861 0.999542,1.26283 3.762492,4.88888 6.139898,8.05787 5.11981,6.82455 9.122284,10.32695 15.676494,13.7178 l 2.82649,1.46231 -0.46704,1.69822 c -0.46413,1.68743 -2.06748,5.14208 -2.3866,5.14208 -0.0918,0 0.32637,-1.22121 0.92926,-2.71381 0.60289,-1.4926 0.98733,-2.99739 0.85432,-3.34399 -0.13299,-0.34661 -1.48579,-1.31408 -3.00621,-2.14993 -1.52043,-0.83585 -3.68719,-2.22411 -4.81502,-3.085 -1.12784,-0.86089 -2.13747,-1.56526 -2.24367,-1.56526 -0.10622,0 -0.42399,1.18823 -0.70619,2.64047 -0.28221,1.45228 -0.71655,3.05379 -0.965194,3.55892 -0.28854,0.58622 -0.36988,0.62976 -0.22482,0.12041 0.12497,-0.43892 0.366754,-1.84968 0.537254,-3.13502 l 0.31002,-2.33698 -2.474714,2.374 c -3.08676,2.96115 -8.34306,6.50806 -11.271911,7.60622 -1.223172,0.45863 -2.966762,1.58676 -3.874624,2.50695 -1.809491,1.83405 -6.362181,4.1817 -9.600059,4.95039 -3.934658,0.93413 -4.668884,1.03811 -4.413556,0.62497 z M 43.27856,232.33558 c 0.365333,-0.30318 0.865662,-0.42676 1.11184,-0.27463 0.246181,0.15216 0.576084,0.0688 0.733124,-0.18536 0.161498,-0.2613 -0.642082,-0.71009 -1.849845,-1.03313 -1.481106,-0.39613 -3.27004,-1.5295 -5.838639,-3.69903 -2.570187,-2.17089 -3.926415,-3.02996 -4.432614,-2.80771 -2.267452,0.9955 -9.361727,0.19016 -14.626995,-1.66042 -1.431224,-0.50304 -2.701583,-0.91461 -2.823029,-0.91461 -0.582246,0 3.231659,3.50216 5.469935,5.02282 5.633851,3.82759 13.757805,6.54734 18.717432,6.26628 1.581007,-0.0895 3.173461,-0.411 3.538791,-0.71421 z m 11.663305,-1.3358 c 1.526153,-0.47499 3.867205,-1.66321 5.202362,-2.64048 l 2.427543,-1.77687 -1.602538,-0.10765 c -6.271559,-0.4215 -10.73202,-1.84915 -13.574247,-4.34465 -1.618689,-1.42124 -1.704897,-1.4412 -4.340579,-1.0053 -1.478995,0.24461 -4.405429,0.29722 -6.503181,0.1169 -2.097752,-0.18027 -3.89659,-0.24528 -3.997417,-0.14445 -0.100826,0.10086 1.447929,1.80661 3.441687,3.79064 6.161506,6.13143 12.408563,8.14666 18.94637,6.11186 z m -5.966167,-19.5274 c 2.088605,-0.60721 3.901468,-1.20803 4.028588,-1.33515 0.12712,-0.12718 -0.96587,-0.5791 -2.428867,-1.00442 -4.707888,-1.36862 -10.903943,-5.23743 -12.894156,-8.05108 -0.72126,-1.01969 -1.660082,-1.80717 -2.161085,-1.81272 -1.60434,-0.0179 -5.729648,-1.547 -12.115685,-4.49126 -1.341772,-0.6186 -2.547323,-1.01701 -2.679,-0.88532 -0.131687,0.13167 0.201523,1.44474 0.740458,2.91789 0.678873,1.85569 2.005797,3.85861 4.319585,6.52017 7.208315,8.29175 14.214163,10.75147 23.190162,8.14189 z m -17.621047,-1.80655 c -3.159468,-2.15658 -9.128373,-8.93943 -10.095726,-11.4724 -0.706166,-1.84906 -0.997374,-2.11556 -2.810599,-2.57214 -3.77867,-0.95148 -10.8171858,-6.10654 -13.5684778,-9.93763 -0.804832,-1.12072 -1.658271,-2.03767 -1.896528,-2.03767 -0.247981,0 -0.349523,1.32524 -0.237508,3.09968 0.269091,4.26266 2.685895,9.22633 6.453067,13.25345 5.9136458,6.3217 14.5541608,10.61572 22.3397888,11.10203 l 2.112051,0.13191 z m 35.35947,-1.76799 c 2.778236,-0.77839 5.966563,-1.94526 7.085163,-2.59304 1.118611,-0.64776 3.685555,-1.71484 5.704321,-2.37129 2.018766,-0.65645 3.893269,-1.55089 4.16556,-1.98764 0.395252,-0.63398 0.04259,-1.64804 -1.74926,-5.02888 -1.234387,-2.32911 -2.37095,-4.37934 -2.525665,-4.55607 -0.154735,-0.17672 -1.624551,0.53391 -3.266234,1.57919 -3.395094,2.16169 -9.37961,4.64538 -13.776419,5.71745 -6.1832,1.50767 -15.736434,0.80286 -22.808425,-1.68277 -3.391271,-1.19193 -3.528195,-1.17745 -3.150608,0.33281 1.132529,4.52991 9.007842,10.07107 16.802769,11.82265 3.806835,0.85541 7.157052,0.55001 13.518798,-1.23241 z M 45.036312,192.54235 c 0.268094,-0.26811 -2.853119,-3.31177 -4.798636,-4.67942 -1.248397,-0.87761 -5.381525,-7.15328 -6.155099,-9.34583 -0.363807,-1.03112 -0.661463,-2.35848 -0.661463,-2.94969 0,-0.78925 -0.823769,-1.69826 -3.099695,-3.42046 -5.038194,-3.8124 -7.065339,-6.71277 -9.294702,-13.29851 -0.470235,-1.38912 -0.936535,-3.40135 -1.036228,-4.4716 -0.09969,-1.07025 -0.295204,-2.05986 -0.434485,-2.19915 -0.373354,-0.37336 -4.445232,4.29364 -5.398534,6.18755 -1.989487,3.95249 -1.284672,9.46899 2.064517,16.15877 3.302412,6.59633 8.637912,12.60202 13.306157,14.97754 1.781471,0.90655 7.104683,2.60771 9.403535,3.00517 1.871013,0.32348 5.793894,0.34638 6.104633,0.0357 z m -22.738183,-7.86313 c -3.737976,-3.864 -8.170433,-11.87117 -9.320764,-16.83781 -1.139051,-4.91795 -1.035701,-7.05087 0.48741,-10.05891 0.726238,-1.43428 1.435692,-2.60778 1.576564,-2.60778 0.140871,0 0.269669,-2.73805 0.286217,-6.08457 0.02463,-4.9766 0.208765,-6.59687 1.011293,-8.89777 0.952805,-2.73178 3.935029,-8.2046 4.74288,-8.70387 0.219899,-0.13591 0.399819,-0.57071 0.399819,-0.96623 0,-0.54636 -0.315655,-0.65598 -1.313929,-0.45633 -6.1954,1.23907 -15.2315588,10.16852 -16.6764778,16.47954 -1.1833114,5.16837 -0.0023,13.61154 3.198736,22.86487 1.488504,4.3031 6.3037278,11.19713 9.3217988,13.34619 2.433561,1.73284 6.109915,3.62763 7.055515,3.63641 0.75038,0.007 0.624798,-0.27289 -0.769062,-1.71374 z m 37.527783,54.95111 c -2.780409,-1.05446 -4.537801,-2.30662 -4.749437,-3.38402 -0.134066,-0.68251 0.06945,-0.7523 1.377641,-0.47264 2.09431,0.4477 3.408936,1.27622 1.420138,0.89503 -3.434506,-0.65832 -0.436058,1.63695 3.987685,3.0525 1.46855,0.46991 2.067642,0.80984 1.408072,0.79892 -0.631411,-0.0105 -2.181257,-0.41087 -3.444099,-0.88979 z m 0.459218,-3.48336 c 1.649025,-0.36286 3.63969,-1.22112 5.480313,-2.36278 1.612319,-1.00007 1.723433,-1.18141 1.033234,-1.68608 -1.389498,-1.01603 -0.872323,-1.61184 1.407895,-1.62197 6.066988,-0.0269 13.697564,-4.83336 19.005368,-11.97126 1.304034,-1.75366 2.463498,-3.09597 2.576569,-2.98289 0.320891,0.32087 -4.552958,6.23299 -7.075541,8.58285 -1.248436,1.16296 -3.0858,2.6525 -4.083019,3.31007 -2.352168,1.55103 -7.643877,3.53012 -9.438892,3.53012 -2.07534,0 -1.443276,1.0255 1.111287,1.80302 2.297105,0.69914 3.002717,1.61456 0.88911,1.15349 -0.97242,-0.21215 -1.10442,-0.16298 -0.574016,0.21381 1.171124,0.83194 -0.375332,0.60487 -1.862192,-0.27346 -1.213174,-0.71664 -1.378789,-0.71917 -2.13732,-0.0328 -1.144654,1.03578 -5.056863,2.65745 -6.256066,2.59326 -0.922239,-0.0493 -0.927861,-0.0681 -0.07677,-0.25537 z m 12.398776,-1.06902 c -0.777759,-0.33421 -0.707431,-0.39128 0.459217,-0.37259 0.757692,0.0117 1.997572,0.17979 2.755274,0.37259 1.316571,0.33502 1.296229,0.35154 -0.459208,0.37261 -1.010281,0.0118 -2.250161,-0.15554 -2.755283,-0.37261 z m 160.495284,-0.29237 c -2.47623,-0.4065 -5.05136,-1.22429 -5.05136,-1.60415 0,-0.60405 1.11775,-0.48034 2.58798,0.28644 2.06336,1.07612 10.49865,0.94217 13.80288,-0.21918 5.11753,-1.79866 11.46451,-5.97097 14.71521,-9.67332 l 1.4193,-1.61648 -3.7491,1.2688 c -2.06202,0.69783 -4.1624,1.26211 -4.66754,1.25396 -0.50513,-0.007 0.63684,-0.47541 2.53774,-1.03832 1.9009,-0.56294 4.35382,-1.49141 5.45092,-2.06324 1.09712,-0.57186 2.11336,-0.92114 2.25827,-0.7762 0.4151,0.41509 -5.38792,6.10687 -8.18046,8.02366 -3.2228,2.21211 -8.45813,4.85019 -10.80616,5.44517 -2.11817,0.53675 -8.644,0.98762 -10.31768,0.71286 z M 76.472424,234.29466 c 0.568276,-0.10947 1.498171,-0.10947 2.066458,0 0.568275,0.10947 0.103355,0.19901 -1.033225,0.19901 -1.136562,0 -1.60152,-0.0895 -1.033233,-0.19901 z m -2.976168,-0.45336 c 0.446817,-0.11637 1.066758,-0.10881 1.377651,0.0172 0.310905,0.12573 -0.05464,0.22106 -0.812369,0.2117 -0.757692,-0.008 -1.01208,-0.11234 -0.565282,-0.22872 z m 78.708204,-6.41692 c -0.63189,-0.63187 -0.18097,-1.06328 4.86001,-4.64978 6.85353,-4.87609 12.56843,-10.65754 17.78693,-17.99407 4.70233,-6.61085 6.64311,-8.72663 2.63081,-2.86802 -6.80996,9.94361 -11.6956,15.24092 -19.04009,20.64433 -2.58882,1.90461 -4.70696,3.56087 -4.70696,3.6806 0,0.54828 3.57078,-0.54963 7.16992,-2.20457 4.20869,-1.93523 5.82752,-3.05901 11.02326,-7.65234 6.47646,-5.7256 17.27113,-20.99233 22.70331,-32.10899 3.33975,-6.83455 6.85901,-15.98752 6.86173,-17.84606 l 9.4e-4,-1.37765 7.23164,-0.0822 c 8.75158,-0.0995 10.94414,-0.3341 16.87511,-1.80642 6.0618,-1.50478 8.54822,-2.70145 12.32017,-5.92944 4.63949,-3.97042 5.82117,-5.90003 5.80871,-9.48527 -0.0118,-3.42592 -1.02364,-5.9203 -3.26312,-8.04505 -2.22897,-2.11471 -4.58564,-2.94449 -8.61176,-3.03216 -3.23173,-0.0705 -3.8037,0.0691 -7.49573,1.82848 -5.19429,2.47523 -11.26474,6.65728 -15.80788,10.89036 -4.15674,3.87309 -5.33813,5.60285 -4.28261,6.27058 0.53713,0.33978 0.48811,0.42642 -0.25082,0.44332 -0.88209,0.0201 -0.88447,0.0408 -0.0602,0.51965 0.55185,0.32063 0.96176,0.33802 1.14804,0.0487 0.15935,-0.24749 0.67605,-0.3118 1.14825,-0.14295 0.65803,0.23531 1.67689,-0.51027 4.36254,-3.19237 7.78502,-7.77466 15.33758,-11.67593 20.86005,-10.77521 3.3406,0.54487 5.00072,3.12438 4.23994,6.58812 -0.77191,3.51449 -7.83662,8.05243 -16.77424,10.7748 -8.74381,2.66335 -16.48063,2.96772 -24.63932,0.96933 -4.24601,-1.04 -12.40639,-4.18231 -11.9768,-4.61188 0.076,-0.0762 2.13998,0.6672 4.58646,1.65172 4.36016,1.75462 6.18039,2.24035 12.37441,3.30216 5.20683,0.89257 14.63392,-0.0547 20.57382,-2.06738 5.01118,-1.69797 9.92642,-4.17877 12.52756,-6.32286 5.94236,-4.89818 2.4827,-11.06003 -5.37331,-9.57018 -3.72376,0.70619 -9.51217,4.28509 -14.35799,8.87736 -2.63218,2.49445 -4.22344,4.339 -4.0756,4.7243 0.13342,0.34769 -0.0435,0.74189 -0.39302,0.87604 -0.61434,0.23575 -5.73105,-0.53794 -6.11823,-0.92512 -0.44772,-0.44774 1.30678,-2.85368 4.27337,-5.86007 4.60813,-4.66991 11.38742,-9.61517 17.01443,-12.41145 4.78386,-2.37726 4.99549,-2.43528 8.85289,-2.42697 3.18219,0.007 4.37394,0.21476 6.11909,1.06741 4.73398,2.31297 7.46857,8.89323 5.66183,13.6241 -0.85844,2.24778 -5.09696,6.8084 -8.55424,9.20429 -4.05082,2.80723 -13.78641,5.2058 -22.46513,5.5348 -3.1571,0.11962 -6.78722,0.32263 -8.06695,0.45103 -2.19707,0.22043 -2.3597,0.32818 -2.91741,1.93297 -1.10425,3.17741 -3.82885,9.95175 -5.76259,14.32788 -4.37612,9.90334 -16.83329,28.22542 -22.89982,33.68122 -6.04701,5.43821 -11.07358,8.51263 -17.49099,10.69802 -3.68333,1.25431 -3.24732,1.16104 -3.63155,0.7768 z m -32.45113,-1.69333 c -6.77339,-2.40919 -13.9038,-7.25682 -19.17869,-13.03868 -2.930844,-3.21253 -11.477022,-15.23227 -13.142675,-18.48445 -1.076303,-2.10149 2.97177,3.60181 6.741941,9.49863 3.19469,4.99674 9.890304,12.15365 14.401764,15.39401 4.77017,3.42618 13.0296,7.54098 13.00626,6.47965 -0.006,-0.20644 -0.98611,-1.02082 -2.18126,-1.80973 -1.19516,-0.78892 -3.86378,-2.90572 -5.93027,-4.704 -3.22422,-2.80578 -4.89843,-4.5943 -9.729,-10.39333 -1.96768,-2.36215 -6.690524,-9.20521 -9.508034,-13.77641 -2.681271,-4.35018 -4.269423,-7.45461 -9.39694,-18.36856 -0.474631,-1.01027 -1.516402,-3.79999 -2.315037,-6.19939 -0.798646,-2.3994 -1.633948,-4.55884 -1.856264,-4.79878 -0.748433,-0.8078 -0.412187,-1.63022 0.666507,-1.63022 3.938658,0 17.741354,-5.72636 25.334098,-10.51041 2.02055,-1.27312 5.22356,-3.07736 7.11783,-4.00942 3.94813,-1.94268 9.08146,-5.22184 10.32426,-6.59512 0.71367,-0.78858 0.75862,-1.10189 0.2851,-1.98668 -0.3092,-0.57774 -0.97495,-1.30823 -1.47943,-1.62328 -0.8031,-0.50156 -1.18546,-0.35403 -3.07194,1.18513 -9.29613,7.58463 -20.490344,14.42127 -28.558713,17.44169 -6.592314,2.46783 -11.294563,3.34337 -17.909038,3.33457 -14.001333,-0.0186 -21.825762,-2.5405 -29.110201,-9.38255 l -3.622753,-3.40274 0.313495,-1.98389 c 0.376655,-2.38352 1.407579,-3.52937 3.625423,-4.02958 1.934983,-0.4364 6.342264,-0.17983 8.463916,0.49273 2.622245,0.83128 8.315707,4.89522 12.474075,8.9039 3.193999,3.07903 4.325512,3.89833 5.376185,3.89278 2.67553,-0.0143 2.692217,-0.60365 0.09752,-3.44624 -3.690338,-4.04291 -11.728487,-11.15869 -13.797425,-12.21418 -2.523135,-1.28723 -7.751971,-2.71504 -11.603759,-3.16863 -3.119193,-0.36731 -3.312944,-0.32933 -6.534931,1.28125 -2.853783,1.42651 -3.465415,1.95385 -4.352093,3.75233 -1.346517,2.73117 -1.36174,6.43922 -0.03688,8.98665 1.539401,2.95997 5.001497,6.86088 7.649496,8.61907 2.662004,1.76746 7.058115,3.24278 11.769872,3.9499 5.90988,0.88693 14.771208,1.55176 17.259704,1.29492 2.121046,-0.21891 2.579443,-0.13482 2.786249,0.51113 0.13614,0.42522 1.060217,2.71316 2.053464,5.08428 0.993279,2.37112 1.72291,4.39419 1.621409,4.49568 -0.101535,0.1015 -1.053261,-1.87418 -2.115039,-4.39041 -1.061768,-2.51623 -2.241409,-4.69428 -2.621415,-4.8401 -0.380017,-0.14582 -1.862242,-0.26758 -3.29385,-0.27058 -4.755809,-0.0105 -16.789895,-1.34966 -20.203872,-2.24925 -4.878774,-1.28553 -8.114161,-3.09788 -11.203759,-6.27591 -3.325353,-3.42054 -4.755948,-5.85716 -5.453073,-9.28779 -0.505267,-2.48648 -0.465946,-2.75367 0.790545,-5.3719 1.210968,-2.52336 1.592845,-2.89902 4.536764,-4.46283 3.944244,-2.09517 5.679435,-2.17645 11.960304,-0.56024 5.166654,1.32949 7.631891,2.39342 10.167091,4.38792 3.198762,2.51651 14.380106,13.38629 14.380106,13.97939 0,0.39698 -0.964891,0.63262 -3.019365,0.7374 -2.892333,0.14751 -3.063875,0.096 -4.076785,-1.22366 -2.789204,-3.63389 -9.309282,-9.05646 -13.10268,-10.89714 -2.546612,-1.2357 -9.218875,-1.66532 -11.020083,-0.70957 -1.366165,0.72489 -2.089321,2.53242 -1.674469,4.18534 0.460561,1.83502 6.356429,7.45516 9.469519,9.02662 5.371077,2.71131 13.086041,4.14141 22.263775,4.12695 9.17158,-0.0144 16.314909,-2.19534 28.024101,-8.55594 4.00578,-2.17597 7.00292,-4.08929 10.33232,-6.59589 0.88399,-0.66554 2.83581,-2.12472 4.33737,-3.24263 1.50156,-1.11792 3.42737,-2.72539 4.27957,-3.57218 l 1.54944,-1.53958 2.2805,2.44187 c 1.97398,2.11363 2.16817,2.48341 1.44467,2.75106 -0.45971,0.17005 -1.12366,0.656 -1.47545,1.07988 -0.90326,1.08837 -6.60984,4.71932 -9.38996,5.97459 -1.28552,0.58043 -4.61043,2.43361 -7.38867,4.11815 -6.98901,4.23767 -13.691304,7.38018 -20.320217,9.52756 -3.093952,1.00225 -5.622462,2.06522 -5.618895,2.36217 0.0039,0.29693 0.702756,2.60635 1.553749,5.13203 2.788589,8.27622 7.743349,18.27081 13.460299,27.15164 7.155404,11.11538 13.940744,18.78936 21.946204,24.82045 6.12158,4.61181 6.26866,5.02188 1.14805,3.20055 z m 27.634,-5.92196 c 0.19669,-1.75317 -0.76198,-19.97421 -1.28511,-24.42512 l -0.29461,-2.50655 -1.43198,0.30628 c -2.02118,0.43233 -8.18823,0.39342 -12.04455,-0.076 -1.87383,-0.22808 -3.36653,-0.2251 -3.50306,0.007 -0.13089,0.2224 -0.37574,2.6775 -0.54412,5.45573 -0.54345,8.96608 -1.61604,21.4802 -1.8622,21.72637 -0.58405,0.58405 -0.76832,-0.76879 -1.18475,-8.69862 -0.50816,-9.67718 -1.61303,-19.1254 -2.33873,-19.99983 -0.27313,-0.32909 -1.35078,-0.81352 -2.39476,-1.07647 -4.59196,-1.15667 -14.07374,-7.31191 -18.9519,-12.30292 -1.832824,-1.87522 -5.218134,-6.51462 -5.218134,-7.15118 0,-0.12288 0.98157,-0.35717 2.18126,-0.52051 2.601054,-0.35413 9.618374,-3.79131 12.511194,-6.12815 3.55518,-2.8719 14.73454,-13.98303 15.91537,-15.81824 0.62007,-0.96366 1.34468,-1.67966 1.61029,-1.59111 0.60458,0.20153 0.54242,21.46557 -0.0767,26.22996 -0.5553,4.27331 -0.56797,9.13266 -0.0275,10.55412 0.382,1.00473 0.85434,1.18657 4.38306,1.68747 3.6134,0.51294 6.0235,0.44902 10.97038,-0.29092 l 1.77554,-0.2656 -0.25455,-18.20434 c -0.14001,-10.01239 -0.39484,-18.66932 -0.56628,-19.2376 -0.42264,-1.40093 0.93888,-1.41041 1.68743,-0.0117 1.53296,2.86435 11.22948,12.34541 16.03059,15.67436 4.05357,2.81063 8.65323,5.28761 11.58188,6.23703 0.94714,0.30703 1.72206,0.75297 1.72206,0.99098 0,0.85821 -2.32073,4.08094 -5.00539,6.95087 -3.19823,3.4189 -9.53115,8.32829 -15.54692,12.05217 -2.3376,1.44703 -4.34498,2.78436 -4.46083,2.97181 -0.11586,0.18745 -0.35277,6.08064 -0.52645,13.09601 l -0.31582,12.75518 1.10295,-0.75808 c 1.75296,-1.20483 4.92481,-5.70831 6.73952,-9.56894 1.32585,-2.82062 5.15446,-14.18873 5.15668,-15.31138 9.3e-4,-0.6099 0.63892,-1.14099 2.08337,-1.73505 1.29803,-0.53382 2.79385,-1.70071 3.97348,-3.09968 1.04051,-1.23398 2.09421,-2.24358 2.34158,-2.24358 1.32324,0 -1.82116,10.50447 -4.67365,15.61327 -0.91665,1.64167 -2.07843,3.81147 -2.58177,4.82174 -0.9878,1.98273 -6.82455,8.02944 -11.85742,12.28398 -3.34496,2.82765 -5.01899,3.38594 -4.81943,1.60724 z m 21.35637,-25.68727 c -0.14658,-0.36633 -0.2554,-0.25752 -0.27743,0.27745 -0.02,0.48408 0.0887,0.7553 0.24119,0.60271 0.15258,-0.15259 0.16889,-0.54866 0.0362,-0.88016 z m -33.14748,-6.80211 c 0.15826,-0.25607 -0.18527,-0.45611 -0.77652,-0.45219 -0.85304,0.006 -0.92567,0.094 -0.37151,0.45219 0.85446,0.55219 0.80675,0.55219 1.14803,0 z m 25.30041,-2.36716 0.87479,-0.98952 -1.26283,0.81272 c -1.30215,0.83801 -1.54839,1.16632 -0.87481,1.16632 0.21341,0 0.78171,-0.44528 1.26285,-0.98952 z m -5.87202,-1.99537 c 1.30887,-0.63142 2.59259,-1.14804 2.8527,-1.14804 0.96744,0 7.17981,-3.37788 9.17506,-4.98879 4.895,-3.95212 5.10508,-4.37603 2.41087,-4.86506 -2.42881,-0.44086 -13.15563,-5.74238 -16.83917,-8.32245 -0.51156,-0.35831 -1.06151,-0.65148 -1.22214,-0.65148 -0.43098,0 -1.00123,17.49175 -0.63404,19.44901 0.38072,2.02941 0.98653,2.1044 4.25672,0.52681 z m -31.98214,-1.61175 c -0.16498,-2.49552 -1.36061,-12.12744 -1.72378,-13.88672 -0.28863,-1.3982 -0.72868,-1.58216 -1.51579,-0.63374 -0.82584,0.99506 -5.77246,3.06189 -11.74004,4.90526 -3.0201,0.93292 -5.54814,1.87748 -5.61784,2.09904 -0.41891,1.33141 11.53446,7.8351 16.73576,9.10573 3.80951,0.93062 4.02249,0.84296 3.86169,-1.58957 z m -0.22016,-10.64353 c -0.1466,-0.36632 -0.25541,-0.25752 -0.27745,0.27745 -0.02,0.48408 0.0886,0.7553 0.2412,0.60271 0.1526,-0.15257 0.1689,-0.54867 0.0362,-0.88016 z m 97.26927,47.58728 c -1.01027,-0.35515 -1.32023,-0.54874 -0.68882,-0.4302 0.63142,0.11857 1.613,0.21834 2.18128,0.22179 0.56826,0.005 1.03322,0.21293 1.03322,0.46548 0,0.57102 -0.23931,0.54667 -2.52568,-0.25707 z m -171.143299,-0.0566 c 0.331493,-0.13265 0.727572,-0.11635 0.880163,0.0362 0.152591,0.1526 -0.118636,0.26113 -0.602717,0.2412 -0.53496,-0.022 -0.643772,-0.13084 -0.277446,-0.27743 z m 2.726589,0.008 c 0.315706,-0.12745 0.832317,-0.12745 1.148033,0 0.315707,0.12743 0.05741,0.23162 -0.574026,0.23162 -0.631411,0 -0.889722,-0.10424 -0.574007,-0.23162 z m 3.243193,-0.46878 c 0.331495,-0.13266 0.727567,-0.11638 0.880169,0.0362 0.152591,0.15259 -0.118643,0.26112 -0.602719,0.24118 -0.53497,-0.022 -0.643782,-0.13085 -0.27745,-0.27743 z m 3.28229,-0.84512 c 1.126484,-0.35097 2.118596,-0.56768 2.204704,-0.48157 0.234944,0.23494 -2.672458,1.18577 -3.517758,1.15044 -0.404302,-0.017 0.18657,-0.31787 1.313054,-0.66887 z m 157.299097,0.16298 c -1.77698,-0.59866 -3.82275,-1.49265 -7.80665,-3.41148 -5.40527,-2.6034 -15.83442,-11.02354 -15.10852,-12.19807 0.16515,-0.26722 0.68689,-0.0903 1.26575,0.42904 1.64451,1.47562 11.3611,5.74496 17.40152,7.646 3.27037,1.02924 4.552,1.21702 6.88821,1.00931 5.31232,-0.47238 8.25481,-1.33957 13.13052,-3.86978 3.61487,-1.8759 7.87868,-5.69813 7.87868,-7.0627 0,-0.45841 0.17347,-0.83348 0.38551,-0.83348 0.21203,0 0.63276,-0.54264 0.93494,-1.2059 0.63332,-1.38997 0.8072,-1.40884 -4.09403,0.44438 -1.65177,0.62454 -4.02821,1.25551 -5.28097,1.40216 -2.21329,0.25908 -2.19328,0.2435 0.70714,-0.55 1.64168,-0.44913 4.49491,-1.39914 6.34051,-2.11107 1.84559,-0.71197 3.45289,-1.19721 3.57175,-1.07835 0.11885,0.11885 -0.003,0.79095 -0.26951,1.49351 l -0.48566,1.27737 2.42447,-0.25069 c 3.29719,-0.34093 8.23053,-2.39019 10.97319,-4.55814 2.61484,-2.06691 3.39461,-1.96298 2.43862,0.32502 l -0.66736,1.59722 1.4986,-3.3e-4 c 2.76632,-3.5e-4 6.80444,-2.38655 11.33289,-6.69598 2.34825,-2.23468 4.46187,-4.56887 4.69692,-5.18713 0.24894,-0.65479 0.59205,-0.94907 0.8218,-0.7049 0.69295,0.73653 -1.22706,8.69945 -2.89738,12.01629 -1.61914,3.2152 -4.59441,7.29249 -6.68839,9.16573 -1.98332,1.77424 -9.20712,5.4681 -13.80348,7.05835 -3.37041,1.16608 -5.19877,1.52495 -8.03963,1.57796 -2.02241,0.0378 -4.12694,0.30936 -4.67676,0.6036 -0.5498,0.29426 -2.54898,0.53499 -4.44262,0.53499 -2.73586,0 -4.22745,-0.29486 -7.26281,-1.43577 -3.3628,-1.26398 -4.31762,-1.42539 -7.98025,-1.34894 -3.68148,0.0767 -4.73674,-0.10404 -9.16652,-1.57049 -2.75333,-0.91152 -7.03109,-2.60983 -9.50611,-3.77401 -2.47503,-1.16418 -4.61086,-2.00588 -4.7463,-1.87045 -0.39338,0.39339 7.4681,6.33811 11.1763,8.45131 1.86208,1.06117 4.45471,2.34036 5.7614,2.84269 1.30668,0.50233 3.20238,1.23254 4.21266,1.62269 2.02318,0.78132 1.27771,0.95992 -0.91843,0.22007 z m 23.68165,-4.68077 c 3.68273,-1.30012 7.76565,-4.01502 10.53905,-7.00788 1.96977,-2.12563 6.65842,-10.73975 6.33762,-11.64371 -0.081,-0.2286 -1.29194,0.3554 -2.69067,1.29782 -2.58082,1.73879 -7.61917,3.67517 -10.54443,4.05251 -1.67175,0.21565 -3.67371,1.95275 -3.67371,3.1877 0,0.37968 -0.22055,0.55401 -0.49012,0.38741 -0.26957,-0.16662 -0.59313,0.091 -0.71903,0.57243 -0.12587,0.48145 -0.7836,1.11897 -1.46155,1.41669 -0.67793,0.29774 -3.17919,1.57781 -5.55834,2.84455 -2.37916,1.26678 -4.69173,2.30324 -5.13907,2.30324 -0.82437,0 -1.60701,0.79122 -1.19257,1.20567 0.12444,0.12444 1.64327,0.72622 3.37529,1.33741 4.01287,1.41604 7.29886,1.42956 11.21753,0.0462 z m 0.8863,-10.47517 c 0,-0.4557 1.8436,-2.3631 2.06755,-2.13914 0.12366,0.12366 -0.29092,0.70946 -0.92133,1.30172 -0.63042,0.59223 -1.14622,0.96909 -1.14622,0.83742 z m 11.35586,8.54344 c 10.02396,-3.29481 16.83215,-8.94545 20.34431,-16.88526 1.02552,-2.31836 2.39518,-8.15014 2.00564,-8.53968 -0.12966,-0.12964 -1.55655,1.13111 -3.17081,2.80182 -4.4548,4.61071 -6.76704,6.3184 -10.19148,7.52689 -1.71766,0.60619 -3.46156,1.10651 -3.87534,1.11183 -0.473,0.007 -1.39737,1.29768 -2.4895,3.47846 -0.95544,1.90782 -2.52159,4.35992 -3.48031,5.44911 -0.95874,1.08917 -1.59497,2.14443 -1.41382,2.34501 0.18112,0.20059 0.0987,0.23311 -0.18331,0.0723 -0.28197,-0.16082 -0.89032,0.12497 -1.3519,0.63496 -0.81533,0.90092 -0.8138,0.91903 0.0533,0.63512 0.49097,-0.16073 0.20752,0.16921 -0.62987,0.7332 -0.8374,0.56401 -2.16517,1.15688 -2.95056,1.31752 -0.78541,0.16063 -1.50422,0.52069 -1.59738,0.80014 -0.28963,0.86891 3.88918,0.17574 8.93089,-1.48142 z m -0.97365,-3.60688 c 0.13789,-0.35933 0.58478,-0.78152 0.99308,-0.9382 0.60989,-0.23404 0.59087,-0.11742 -0.10673,0.65331 -1.00027,1.10528 -1.22949,1.17894 -0.88641,0.28489 z m -188.557241,8.72497 c 1.279472,-0.77089 2.285723,-0.97201 1.584289,-0.31665 -0.239933,0.22418 -0.952867,0.54278 -1.584289,0.70798 l -1.148033,0.30037 z m 3.214502,-1.36653 c 0,-0.32786 5.592109,-3.10295 5.811216,-2.88385 0.117022,0.11701 -1.072262,0.85501 -2.642926,1.63987 -2.932862,1.46556 -3.16829,1.55801 -3.16829,1.24398 z m 6.850447,-3.67014 c 0.358072,-0.43399 1.081341,-1.01827 1.60724,-1.29841 0.87008,-0.46343 0.897567,-0.43826 0.305154,0.27976 -0.358093,0.43398 -1.081351,1.01828 -1.607251,1.2984 -0.87007,0.46346 -0.897567,0.43827 -0.305143,-0.27975 z M 181.00118,195.92881 c 1.24023,-2.04426 9.17829,-17.90351 10.74551,-21.46826 1.82691,-4.15538 3.45837,-8.73748 3.20222,-8.99364 -0.14457,-0.14457 -2.1693,-0.77153 -4.49938,-1.39322 -2.33008,-0.62169 -4.77634,-1.44517 -5.43617,-1.82996 -0.70253,-0.40969 -0.81908,-0.57328 -0.28125,-0.3947 0.50514,0.1677 3.14259,0.87237 5.861,1.56594 2.7184,0.69358 5.06335,1.38184 5.21099,1.52948 1.03044,1.03046 -14.23514,32.93602 -15.75863,32.93602 -0.12561,0 0.30448,-0.87825 0.95571,-1.95166 z m -96.187134,-5.92173 c -2.721926,-4.66058 -6.961007,-13.60375 -6.749282,-14.23895 0.09831,-0.2946 0.555382,0.47889 1.015934,1.71889 0.818841,2.20464 4.751443,9.96654 7.017038,13.8497 0.626285,1.07342 1.024837,1.95167 0.885682,1.95167 -0.139135,0 -1.115349,-1.47659 -2.169372,-3.28131 z m 95.325934,-29.93869 c -1.51542,-0.83236 -5.28209,-2.9458 -8.3704,-4.69653 -3.08832,-1.75071 -7.7335,-4.31968 -10.32264,-5.70879 -2.58914,-1.38911 -5.98816,-3.61058 -7.55339,-4.93655 -1.56524,-1.32598 -3.06777,-2.41089 -3.33897,-2.41089 -0.27122,0 -0.49313,-0.20664 -0.49313,-0.45919 0,-0.25258 0.22905,-0.45922 0.50901,-0.45922 0.27995,0 1.42132,-0.98157 2.53638,-2.18127 l 2.02734,-2.18126 1.25216,1.41564 c 2.66711,3.01536 12.68541,10.30557 17.86561,13.00062 3.46865,1.80457 7.13223,4.1819 6.44453,4.1819 -0.17091,0 -1.60589,-0.78592 -3.18891,-1.74649 -1.58298,-0.96058 -3.58274,-2.03254 -4.44391,-2.38215 -1.95959,-0.79554 -13.37861,-9.09284 -15.99636,-11.62331 l -1.94882,-1.88385 -1.61009,1.75781 c -0.88553,0.96678 -1.61007,1.92092 -1.61007,2.12027 0,0.19936 0.98155,1.22716 2.18126,2.28401 2.25104,1.98299 5.46576,3.98197 11.82477,7.35288 2.02054,1.07108 5.63684,3.10015 8.03624,4.50904 2.39939,1.40889 5.6024,3.23642 7.1178,4.06116 1.51542,0.82475 2.54866,1.49955 2.29608,1.49955 -0.25257,0 -1.6991,-0.68102 -3.21449,-1.51338 z m -50.9378,-24.2797 c -0.72243,-2.34504 -2.29569,-6.74409 -3.4961,-9.77571 -1.20042,-3.03162 -2.40914,-6.33795 -2.68604,-7.34742 -0.35472,-1.29324 -0.97666,-2.14009 -2.10546,-2.86683 -1.9441,-1.25163 -2.46946,-2.89743 -1.43088,-4.48251 0.86136,-1.31461 2.34148,-1.48023 3.84116,-0.42981 1.09216,0.76497 1.37239,2.82115 0.585,4.29239 -0.34991,0.6538 0.008,1.25226 1.82627,3.04183 1.24403,1.22532 2.3685,2.12124 2.49884,1.99091 0.42552,-0.42552 1.16185,-5.06236 1.16185,-7.31644 0,-1.73886 -0.17863,-2.25916 -0.84873,-2.47182 -0.90602,-0.28757 -1.90655,-2.06973 -1.90655,-3.39599 0,-1.25035 0.94885,-1.90708 2.75528,-1.90708 0.90924,0 1.90116,0.24797 2.20423,0.55104 0.78825,0.78825 0.68044,3.5962 -0.17436,4.54075 -0.60237,0.6656 -0.62867,0.98334 -0.15508,1.873 0.69139,1.29886 3.29978,4.49574 3.67751,4.50727 0.39464,0.0117 1.4445,-4.9551 1.14853,-5.43399 -0.13761,-0.22263 0.15825,-0.77439 0.65743,-1.22615 1.15615,-1.04628 1.15256,-2.28919 -0.0106,-3.76821 -1.15792,-1.47204 -1.15212,-1.99734 0.0361,-3.27271 1.04718,-1.124 2.50243,-1.00147 3.52285,0.29665 0.80227,1.0206 0.71641,3.18464 -0.14548,3.66701 -0.63745,0.35671 -0.57635,0.84397 0.53527,4.27054 0.69014,2.12734 1.32387,4.14307 1.40833,4.47942 0.16736,0.66661 4.28648,-3.88829 4.28648,-4.73999 0,-0.28028 -0.22281,-0.73241 -0.49511,-1.00472 -0.27233,-0.27231 -0.42731,-1.07492 -0.34443,-1.78356 0.17097,-1.46175 1.77412,-2.16237 3.49291,-1.52655 1.5497,0.57327 1.45231,3.44441 -0.14146,4.17057 -1.09828,0.50042 -1.14958,0.68185 -0.93849,3.31947 l 0.22327,2.79011 -0.55394,-2.94827 -0.55393,-2.94827 -1.8941,2.48906 c -1.04175,1.36897 -2.13392,2.954 -2.42702,3.52226 -0.75718,1.46801 -1.41904,1.27867 -1.41904,-0.40593 0,-1.73106 -0.92392,-4.98982 -1.41471,-4.98982 -0.19301,0 -0.60515,-0.77035 -0.91589,-1.71189 l -0.56497,-1.71186 -0.56511,1.36747 c -1.13028,2.73503 -2.50621,7.65924 -2.25414,8.06708 0.14214,0.23 -0.0191,0.41819 -0.35846,0.41819 -0.33929,0 -1.00753,-0.6716 -1.48496,-1.49243 -0.47742,-0.82086 -0.99407,-1.59579 -1.14809,-1.72206 -0.15399,-0.12626 -0.7165,-0.79863 -1.25,-1.49408 l -0.96996,-1.26447 -0.49145,2.87171 c -0.2703,1.57946 -0.62802,3.74996 -0.79493,4.82338 -0.16693,1.07342 -0.35043,1.95168 -0.40776,1.95168 -0.0574,0 -1.06107,-0.92993 -2.23047,-2.06647 -1.83356,-1.78206 -3.05844,-2.53533 -3.05844,-1.88086 0,0.50342 5.22489,14.97136 6.89818,19.10138 0.83719,2.06636 0.83738,2.06646 3.51331,2.29783 2.95632,0.25563 2.23087,0.77086 -1.2418,0.882 l -2.08104,0.0667 z m -5.4029,-22.07995 c 0.20033,-1.66518 -1.37638,-3.18552 -2.77231,-2.67323 -1.40706,0.51636 -1.61536,2.468 -0.39383,3.68956 1.23229,1.2323 2.96241,0.67692 3.16614,-1.01633 z m 7.34255,-4.08825 c 0.76222,-0.76219 0.6911,-2.89398 -0.11896,-3.56627 -0.40965,-0.33995 -1.21271,-0.43685 -2.06647,-0.24933 -1.11771,0.24548 -1.39645,0.54428 -1.39645,1.4969 0,2.19412 2.24996,3.65062 3.58186,2.3187 z m 18.21027,-0.30269 c 0.69356,-2.18515 -1.19764,-3.14079 -2.77229,-1.40085 -0.85245,0.94196 -0.85214,0.97202 0.0165,1.60726 1.22893,0.89861 2.43359,0.8084 2.75569,-0.20641 z m -9.09885,-3.51233 c 0.14614,-0.38081 -0.0545,-1.18112 -0.44594,-1.77847 -0.53209,-0.81208 -1.00828,-1.02939 -1.88735,-0.86134 -1.28491,0.24563 -1.62886,1.77692 -0.62464,2.78113 0.77524,0.77524 2.64042,0.68613 2.95793,-0.14132 z m -1.21292,33.30482 c 0,-0.79903 0.17714,-0.9503 0.80363,-0.68628 1.66041,0.69979 5.41535,0.79672 5.92051,0.15285 0.26878,-0.34257 1.46401,-3.10262 2.65604,-6.13344 1.19204,-3.0308 2.6511,-6.64713 3.24232,-8.03624 1.20512,-2.83148 2.61665,-7.41541 2.36186,-7.6702 -0.21852,-0.2185 -3.79239,2.77412 -4.90287,4.10547 -0.47666,0.57148 -0.88673,0.93573 -0.91126,0.80946 -0.23415,-1.20594 -0.13912,-4.59279 0.12887,-4.59251 0.18943,1.9e-4 0.34442,0.6203 0.34442,1.378 0,0.7577 0.11664,1.37764 0.2592,1.37764 0.14254,0 1.27898,-0.87824 2.52543,-1.95166 1.83477,-1.58006 2.26633,-2.23087 2.26651,-3.41806 2.2e-4,-1.48936 1.30797,-2.89613 2.69225,-2.89613 0.97429,0 1.86902,1.42732 1.8855,3.00785 0.018,1.7171 -0.70427,2.50273 -2.30062,2.50273 -1.03075,0 -1.29964,0.29337 -1.78875,1.95164 -0.3166,1.07341 -1.1612,3.29602 -1.87689,4.93911 -0.71567,1.6431 -1.64273,4.01952 -2.06009,5.28096 -0.41739,1.26143 -1.51366,4.10167 -2.43618,6.31163 l -1.67731,4.01813 h -2.13122 c -1.17217,0 -2.777,0.12912 -3.56629,0.28701 -1.26433,0.25286 -1.43502,0.16509 -1.43502,-0.73796 z m 18.53131,-23.51874 c 0.3325,-0.52803 0.34533,-1.19305 0.0397,-2.06202 -0.5387,-1.53182 -2.03932,-2.04146 -2.03932,-0.6926 0,0.49273 -0.3152,1.15745 -0.70042,1.47717 -0.62477,0.51851 -0.61543,0.67518 0.0865,1.45086 0.91065,1.00626 1.91245,0.93979 2.61346,-0.17341 z"
       style="fill:#F25A4E;stroke-width:0.45921394" />
  </g>
</svg>
